<svg xmlns="http://www.w3.org/2000/svg" width="50" height="50" viewBox="0 0 50 50" fill="none">
  <g clip-path="url(#clip0_2_81)">
    <path d="M25 20.2148C29.6848 20.2148 33.4961 16.4035 33.4961 11.7188C33.4961 7.03398 29.6848 3.22266 25 3.22266C20.3152 3.22266 16.5039 7.03398 16.5039 11.7188C16.5039 16.4035 20.3152 20.2148 25 20.2148ZM25 6.15234C28.0693 6.15234 30.5664 8.64942 30.5664 11.7188C30.5664 14.7881 28.0693 17.2852 25 17.2852C21.9307 17.2852 19.4336 14.7881 19.4336 11.7188C19.4336 8.64942 21.9307 6.15234 25 6.15234Z" fill="white"/>
    <path d="M42.1875 20.2148C45.1491 20.2148 47.5586 17.8054 47.5586 14.8438C47.5586 11.8821 45.1491 9.47266 42.1875 9.47266C39.2259 9.47266 36.8164 11.8821 36.8164 14.8438C36.8164 17.8054 39.2259 20.2148 42.1875 20.2148ZM42.1875 12.4023C43.5337 12.4023 44.6289 13.4976 44.6289 14.8438C44.6289 16.1899 43.5337 17.2852 42.1875 17.2852C40.8413 17.2852 39.7461 16.1899 39.7461 14.8438C39.7461 13.4976 40.8413 12.4023 42.1875 12.4023Z" fill="white"/>
    <path d="M43.3691 23.5352H41.1035C38.4337 23.5352 36.129 25.1125 35.0788 27.3781C32.9166 25.0178 29.8108 23.5352 26.3651 23.5352H23.635C20.1893 23.5352 17.0835 25.0178 14.9213 27.3781C13.871 25.1125 11.5663 23.5352 8.89648 23.5352H6.63086C2.97461 23.5352 0 26.4918 0 30.126V40.791C0 42.3688 1.28848 43.6523 2.87227 43.6523H11.83C11.9802 45.4004 13.4501 46.7773 15.2365 46.7773H34.7636C36.5499 46.7773 38.0198 45.4004 38.1701 43.6523H47.0255C48.6657 43.6523 50.0001 42.3232 50.0001 40.6895V30.126C50 26.4918 47.0254 23.5352 43.3691 23.5352ZM2.92969 30.126C2.92969 28.1072 4.59004 26.4648 6.63086 26.4648H8.89648C10.9373 26.4648 12.5977 28.1072 12.5977 30.126V31.129C11.6126 33.6938 11.8164 35.231 11.8164 40.7227H2.92969V30.126ZM35.2539 43.3573C35.2539 43.6277 35.034 43.8477 34.7636 43.8477H15.2364C14.966 43.8477 14.7461 43.6276 14.7461 43.3573V35.3537C14.7461 30.4523 18.7336 26.4648 23.6349 26.4648H26.365C31.2664 26.4648 35.2539 30.4523 35.2539 35.3536V43.3573ZM47.0703 40.6895C47.0703 40.7399 47.6164 40.7227 38.1836 40.7227C38.1836 35.1903 38.3858 33.6896 37.4023 31.129V30.126C37.4023 28.1072 39.0627 26.4648 41.1035 26.4648H43.3691C45.41 26.4648 47.0703 28.1072 47.0703 30.126V40.6895Z" fill="white"/>
    <path d="M7.8125 20.2148C10.7741 20.2148 13.1836 17.8054 13.1836 14.8438C13.1836 11.8821 10.7741 9.47266 7.8125 9.47266C4.85088 9.47266 2.44141 11.8821 2.44141 14.8438C2.44141 17.8054 4.85088 20.2148 7.8125 20.2148ZM7.8125 12.4023C9.15869 12.4023 10.2539 13.4976 10.2539 14.8438C10.2539 16.1899 9.15869 17.2852 7.8125 17.2852C6.46631 17.2852 5.37109 16.1899 5.37109 14.8438C5.37109 13.4976 6.46631 12.4023 7.8125 12.4023Z" fill="white"/>
  </g>
  <defs>
    <clipPath id="clip0_2_81">
      <rect width="50" height="50" fill="white"/>
    </clipPath>
  </defs>
</svg>