<svg xmlns="http://www.w3.org/2000/svg" width="64" height="64" viewBox="0 0 64 64" fill="none">
  <g clip-path="url(#clip0_2_72)">
    <path d="M31.0345 0.971739C24.3367 7.68183 20.5902 17.0717 20.7548 26.7365L20.7548 30.1145L17.1634 30.1145L13.3589 36.9114L13.3588 45.359L20.7545 45.3591L20.7545 45.3592L21.1369 45.3592L22.9859 50.687L25.2789 50.687L25.279 56.2957L27.9285 56.2957L27.9285 50.6871L30.6411 50.6872L30.641 62.5646L33.2905 62.5646L33.2905 50.6871L36.003 50.6871V56.296L38.6525 56.296L38.6525 50.6871L40.9456 50.6872L42.7947 45.3592L50.5728 45.3592L50.573 36.9125L46.778 30.1148L43.1771 30.1149L43.1771 26.737C43.2617 22.1367 42.4191 17.4113 40.7401 13.0708C37.5518 4.82816 32.5149 0.687465 31.9721 0.0323614L31.0345 0.971739ZM16.0083 37.6025L18.7167 32.7642L20.7546 32.7641L20.7545 42.7097L16.0083 42.7095L16.0083 37.6025ZM39.0606 48.0377L24.8709 48.0375L23.9416 45.3593L39.9902 45.3592L39.0606 48.0377ZM45.2228 32.7645L47.9235 37.602L47.9234 42.7099L43.1772 42.7099V32.7647L45.2228 32.7645ZM40.5278 26.6999L40.5278 30.1151L40.5275 30.1151L40.5275 42.7095L23.4042 42.7096C23.4042 41.4472 23.4043 31.3328 23.4043 30.1145C23.4043 29.7203 23.4044 31.454 23.4041 26.7018C23.257 18.2094 26.3658 9.94946 31.9722 3.8244C37.5829 9.95339 40.6871 18.2124 40.5278 26.6999Z" fill="white"/>
    <path d="M38.0069 24.106C38.0069 20.7724 35.2975 18.0603 31.9673 18.0603C30.3567 18.0603 28.8411 18.6888 27.6999 19.8301C25.3439 22.186 25.3272 25.9998 27.698 28.3695C28.8401 29.511 30.3563 30.1396 31.9674 30.1396C35.2658 30.1394 38.007 27.4543 38.0069 24.106ZM29.5734 21.7036C30.2142 21.0628 31.0644 20.7098 31.9673 20.7098C33.8366 20.7099 35.3574 22.2334 35.3574 24.106C35.3574 25.0029 35.0041 25.85 34.3626 26.4915C33.022 27.832 30.8904 27.8141 29.571 26.4954C28.9301 25.8549 28.2612 23.0158 29.5734 21.7036Z" fill="white"/>
  </g>
  <defs>
    <clipPath id="clip0_2_72">
      <rect width="45.2123" height="45.2123" fill="white" transform="translate(-0.000457764 32) rotate(-45)"/>
    </clipPath>
  </defs>
</svg>