<svg xmlns="http://www.w3.org/2000/svg" width="50" height="50" viewBox="0 0 50 50" fill="none">
  <path d="M28.7538 35.2146C28.9161 34.837 29.0064 34.4212 29.0064 33.9848C29.0064 32.2615 27.6043 30.8593 25.8809 30.8593H24.5504H21.4013L22.8937 28.3488C23.3329 27.6099 23.4446 26.7135 23.2003 25.8894C22.9559 25.0654 22.3734 24.3749 21.6026 23.9951C20.7351 23.5675 19.702 23.5732 18.8391 24.0099C16.3665 25.2618 14.1165 26.973 12.2371 29.0158C12.0699 28.7175 11.7513 28.5156 11.3851 28.5156H2.79132C2.25206 28.5156 1.81476 28.9529 1.81476 29.4921V34.8632C1.81476 35.4025 2.25206 35.8398 2.79132 35.8398C3.33058 35.8398 3.76788 35.4025 3.76788 34.8632V30.4687H10.4085V48.0468H3.76788V43.6523C3.76788 43.113 3.33058 42.6757 2.79132 42.6757C2.25206 42.6757 1.81476 43.113 1.81476 43.6523V49.0234C1.81476 49.5626 2.25206 49.9999 2.79132 49.9999H11.3851C11.9243 49.9999 12.3616 49.5626 12.3616 49.0234V48.9883C13.5232 49.6416 14.8462 49.9999 16.1898 49.9999H25.2034C26.9258 49.9999 28.3269 48.5987 28.3269 46.8764C28.3269 46.4626 28.2453 46.0678 28.0985 45.7061H28.1594C29.8828 45.7061 31.285 44.3041 31.285 42.5806C31.285 41.7487 30.9576 40.9923 30.4258 40.4317C30.9576 39.871 31.285 39.1146 31.285 38.2827C31.2849 36.7625 30.1939 35.493 28.7538 35.2146ZM28.1593 43.7529H21.7871C21.2479 43.7529 20.8106 44.1902 20.8106 44.7294C20.8106 45.2687 21.2479 45.706 21.7871 45.706H25.2032C25.8485 45.706 26.3735 46.231 26.3735 46.8763C26.3735 47.5216 25.8486 48.0468 25.2033 48.0468H16.1897C14.7886 48.0468 13.4169 47.5283 12.3615 46.6144V31.9095L12.4282 31.822C14.3587 29.2894 16.8806 27.1907 19.7214 25.7525C20.0391 25.5915 20.4194 25.5894 20.7393 25.747C21.0275 25.8889 21.2364 26.1368 21.3277 26.4448C21.4192 26.7528 21.3789 27.0745 21.2149 27.3506L18.8452 31.3369C18.6657 31.6386 18.6622 32.0135 18.8358 32.3187C19.0094 32.624 19.3335 32.8124 19.6846 32.8124H25.8808C26.5272 32.8124 27.0531 33.3384 27.0531 33.9848C27.0531 34.6312 26.5272 35.1572 25.8808 35.1572H21.7871C21.2479 35.1572 20.8106 35.5945 20.8106 36.1337C20.8106 36.673 21.2479 37.1103 21.7871 37.1103H28.1593C28.8058 37.1103 29.3317 37.6363 29.3317 38.2827C29.3317 38.9291 28.8058 39.4551 28.1593 39.4551H21.7871C21.2479 39.4551 20.8106 39.8924 20.8106 40.4317C20.8106 40.9709 21.2479 41.4082 21.7871 41.4082H28.1593C28.8058 41.4082 29.3317 41.9342 29.3317 42.5806C29.3317 43.227 28.8059 43.7529 28.1593 43.7529Z" fill="white"/>
  <path d="M33.7544 12.0836L29.5645 11.4749L27.6907 7.678C27.5261 7.3447 27.1867 7.13367 26.8149 7.13367C26.4431 7.13367 26.1037 7.3447 25.9391 7.678L24.0653 11.4749L19.8753 12.0836C19.5074 12.1371 19.2019 12.3948 19.087 12.7483C18.9721 13.1018 19.0679 13.4899 19.334 13.7494L22.366 16.7048L21.6502 20.8778C21.5874 21.2442 21.738 21.6144 22.0388 21.8329C22.3396 22.0513 22.7383 22.0801 23.0672 21.9073L26.8149 19.937L30.5625 21.9073C30.7054 21.9825 30.8615 22.0194 31.0168 22.0194C31.2193 22.0194 31.4208 21.9564 31.591 21.8329C31.8917 21.6144 32.0423 21.2442 31.9795 20.8778L31.2638 16.7048L34.2958 13.7494C34.562 13.4899 34.6577 13.1018 34.5428 12.7483C34.428 12.3948 34.1224 12.1371 33.7544 12.0836ZM29.5329 15.6644C29.3028 15.8888 29.1977 16.212 29.252 16.5289L29.7201 19.2577L27.2694 17.9693C27.1272 17.8945 26.971 17.8572 26.815 17.8572C26.6589 17.8572 26.5028 17.8946 26.3606 17.9693L23.9099 19.2577L24.378 16.5289C24.4323 16.2121 24.3272 15.8888 24.0971 15.6644L22.1145 13.7319L24.8543 13.3339C25.1725 13.2876 25.4474 13.0878 25.5897 12.7996L26.815 10.3168L28.0403 12.7996C28.1826 13.0878 28.4575 13.2876 28.7756 13.3339L31.5155 13.7319L29.5329 15.6644Z" fill="white"/>
  <path d="M48.1373 14.4154C48.0224 14.0619 47.7168 13.8042 47.349 13.7507L44.1389 13.2844L42.7034 10.3754C42.5388 10.0421 42.1994 9.83105 41.8276 9.83105C41.4558 9.83105 41.1163 10.0421 40.9518 10.3754L39.5162 13.2844L36.3062 13.7507C35.9382 13.8042 35.6328 14.0619 35.5178 14.4154C35.403 14.7689 35.4988 15.157 35.7649 15.4165L38.0877 17.6808L37.5394 20.8778C37.4765 21.2442 37.6272 21.6145 37.928 21.8329C38.2288 22.0516 38.6275 22.0801 38.9564 21.9073L41.8276 20.3979L44.6988 21.9073C44.8416 21.9824 44.9977 22.0194 45.1531 22.0194C45.3555 22.0194 45.5571 21.9564 45.7272 21.8329C46.0279 21.6145 46.1786 21.2442 46.1158 20.8778L45.5674 17.6808L47.8903 15.4165C48.1564 15.157 48.2521 14.7689 48.1373 14.4154ZM43.8364 16.6404C43.6063 16.8648 43.5012 17.188 43.5555 17.5049L43.8562 19.2577L42.282 18.4301C42.1397 18.3553 41.9836 18.318 41.8276 18.318C41.6715 18.318 41.5155 18.3554 41.3732 18.4301L39.799 19.2577L40.0996 17.5049C40.1539 17.1881 40.0489 16.8648 39.8188 16.6404L38.5452 15.399L40.3051 15.1434C40.6233 15.0971 40.8982 14.8973 41.0405 14.6091L41.8276 13.0142L42.6147 14.6091C42.757 14.8973 43.0319 15.0971 43.35 15.1434L45.11 15.399L43.8364 16.6404Z" fill="white"/>
  <path d="M8.06176 17.6808L7.51342 20.8778C7.45053 21.2442 7.60122 21.6145 7.902 21.8329C8.20278 22.0516 8.60141 22.0801 8.93042 21.9073L11.8016 20.3979L14.6728 21.9073C14.8157 21.9824 14.9717 22.0194 15.1271 22.0194C15.3295 22.0194 15.5311 21.9564 15.7012 21.8329C16.0019 21.6145 16.1526 21.2442 16.0898 20.8778L15.5415 17.6808L17.8643 15.4165C18.1305 15.157 18.2262 14.7689 18.1114 14.4154C17.9964 14.0619 17.6909 13.8042 17.323 13.7507L14.1129 13.2844L12.6774 10.3754C12.5128 10.0421 12.1734 9.83105 11.8016 9.83105C11.4298 9.83105 11.0904 10.0421 10.9258 10.3754L9.49028 13.2844L6.28022 13.7507C5.91225 13.8042 5.60678 14.0619 5.49184 14.4154C5.377 14.7689 5.4728 15.157 5.73891 15.4165L8.06176 17.6808ZM10.2791 15.1434C10.5973 15.0971 10.8722 14.8973 11.0145 14.6091L11.8016 13.0142L12.5887 14.6091C12.731 14.8973 13.0059 15.0971 13.3241 15.1434L15.084 15.399L13.8104 16.6404C13.5803 16.8648 13.4752 17.188 13.5295 17.5049L13.8302 19.2577L12.256 18.4301C12.1137 18.3553 11.9577 18.318 11.8016 18.318C11.6456 18.318 11.4895 18.3554 11.3472 18.4301L9.77299 19.2577L10.0737 17.5049C10.128 17.1881 10.0229 16.8648 9.79282 16.6404L8.51919 15.399L10.2791 15.1434Z" fill="white"/>
  <path d="M26.8047 4.83584C27.344 4.83584 27.7813 4.39853 27.7813 3.85928V0.976562C27.7813 0.437305 27.344 0 26.8047 0C26.2655 0 25.8282 0.437305 25.8282 0.976562V3.85928C25.8282 4.39853 26.2655 4.83584 26.8047 4.83584Z" fill="white"/>
  <path d="M19.6011 6.9406C19.7918 7.13122 20.0417 7.22663 20.2916 7.22663C20.5415 7.22663 20.7914 7.13122 20.9821 6.9406C21.3635 6.55925 21.3635 5.94089 20.9821 5.55945L19.2905 3.86785C18.9091 3.4866 18.2909 3.4866 17.9094 3.86785C17.528 4.24919 17.528 4.86755 17.9094 5.249L19.6011 6.9406Z" fill="white"/>
  <path d="M33.3385 7.2266C33.5884 7.2266 33.8383 7.13119 34.029 6.94056L35.7207 5.24896C36.1021 4.86761 36.1021 4.24935 35.7207 3.86781C35.3394 3.48666 34.7212 3.48656 34.3396 3.86781L32.6479 5.55951C32.2665 5.94086 32.2665 6.55912 32.6479 6.94066C32.8387 7.13119 33.0885 7.2266 33.3385 7.2266Z" fill="white"/>
  <path d="M3.48187 39.9481C3.66351 39.7666 3.768 39.5146 3.768 39.2578C3.768 39.001 3.66361 38.749 3.48187 38.5674C3.29925 38.3857 3.04828 38.2812 2.79144 38.2812C2.53461 38.2812 2.28265 38.3856 2.10004 38.5674C1.91849 38.749 1.81488 39.001 1.81488 39.2578C1.81488 39.5146 1.91849 39.7666 2.10004 39.9481C2.28265 40.1298 2.53363 40.2344 2.79144 40.2344C3.04828 40.2344 3.30023 40.1299 3.48187 39.9481Z" fill="white"/>
</svg>